<svg xmlns="http://www.w3.org/2000/svg" width="116.996" height="66.419" viewBox="0 0 116.996 66.419"><g transform="translate(-1558.502 -2603.105)"><path d="M133.191,254.274l.015,3.9a1.542,1.542,0,0,1-1.412.541c-2.106.022-4.213.092-6.319-.027a103.139,103.139,0,0,1-11.374-.075c-.637.017-1.017-.424-1.429-.809-4.154-3.883-9.294-3.862-13.43.055a2.074,2.074,0,0,1-1.433.817,11.13,11.13,0,0,1-2.179.2q-11.258.037-22.516.075a3.789,3.789,0,0,1-2.357-.4,2,2,0,0,1-.418-1.6q-.079-8.266-.064-16.532a2.443,2.443,0,0,1,.284-1.525,2.559,2.559,0,0,1,2.042-.532c3.233-.037,6.466-.033,9.7-.046,1,0,1.659-.32,1.657-1.438-.167-4.625-.063-9.253-.119-13.878-.006-.487.005-.974-.014-1.461-.053-1.32-.284-1.578-1.586-1.593-2.394-.028-4.788.007-7.183.015-.771,0-1.542,0-2.311-.067a15.911,15.911,0,0,1-2.088.01c-5.957.187-11.915.081-17.872.138-2.925.028-2.926.015-2.915,2.982q.06,16.539.112,33.078a3.874,3.874,0,0,1-.352,2.477,1.7,1.7,0,0,1-1.11.419,39.5,39.5,0,0,1-6.524-.12c-.636.017-1.016-.421-1.429-.807-3.911-3.658-8.611-3.864-12.819-.554a1.841,1.841,0,0,1-1.406.582c-2.551-.776-3.534-2.846-4.334-5.126a9.888,9.888,0,0,1-.421-3.331c-.006-1.738-.028-3.476-.009-5.213a2,2,0,0,1,.541-1.668,3.839,3.839,0,0,1,2.133-.324c4.905-.034,9.811-.036,14.717-.066,1.907-.012,2.06-.169,2.055-2.112Q41,231.2,40.957,222.136c-.01-1.852-.192-2.037-2.015-2.035-4.906,0-9.811.039-14.717.044a4.65,4.65,0,0,1-2.038-.217.97.97,0,0,1-.376-.271,1.455,1.455,0,0,1-.271-.67,48.68,48.68,0,0,1,.059-7.277,4.013,4.013,0,0,1,1.325-2.646,7.971,7.971,0,0,1,4.268-1.159q47.431-.2,94.862-.353c5.961-.017,11.254,5.672,11.009,11.653a1.57,1.57,0,0,1-1.412.526c-3.385.018-6.771.116-10.155-.011-1.1-.008-1.478.6-1.475,1.627.019,5.105.021,10.211.07,15.316.012,1.236.274,1.482,1.539,1.493,3.241.028,6.482-.029,9.724-.011.635,0,1.322-.1,1.779.531q.018,4.875.036,9.75c-.373.557-.958.531-1.522.545-1.414.034-2.828-.007-4.241.04-1.184.04-1.379.259-1.428,1.457-.133,3.283-.133,3.281,3.142,3.271.929,0,1.858-.017,2.787.006a1.421,1.421,0,0,1,1.284.529" transform="translate(1542.292 2395.554)" fill="#49b9eb"/><path d="M155.72,275.637l-.008,19.488a1.527,1.527,0,0,1,.491,1.059c.052,1.241.055,2.482,0,3.724a1.324,1.324,0,0,1-.5,1.045H134.237a1.2,1.2,0,0,1-.473-.806,28.573,28.573,0,0,1,0-4.2,1.445,1.445,0,0,1,.46-.821q.013-18.564.025-37.127c0-1.835,0-1.837,1.843-1.836l19.6.015a1.712,1.712,0,0,1,.539,1.536q.042,8.185,0,16.37a1.805,1.805,0,0,1-.508,1.553" transform="translate(1457.395 2358.791)" fill="#5a5a5b"/><path d="M33.089,403.325a10.179,10.179,0,0,1,6.752-3.17,9.806,9.806,0,0,1,8.357,3.868,6.14,6.14,0,0,1,2.392,5.048,1.455,1.455,0,0,1-.468.813,9.744,9.744,0,0,1-19.489,0,1.518,1.518,0,0,1-.31-.371c-.669-1.571,1.136-5.6,2.765-6.187" transform="translate(1535.676 2249.898)" fill="#3d3d3d"/><path d="M328.306,403.889c4.646-5.228,11.046-5.227,15.642,0a6.135,6.135,0,0,1,2.393,5.047,1.453,1.453,0,0,1-.468.813,9.744,9.744,0,0,1-19.489,0c-.766-.658-.457-1.464-.273-2.226.347-1.436.682-2.9,2.195-3.636" transform="translate(1312.033 2250.031)" fill="#3d3d3d"/><path d="M430.116,256.244l11.651-.023q0,8.762,0,17.523a1.55,1.55,0,0,1-1.414.539c-3,.033-6,.059-9-.011-1.363-.032-1.741-.4-1.761-1.772-.069-4.947-.045-9.895-.013-14.842a1.55,1.55,0,0,1,.54-1.414" transform="translate(1233.641 2358.746)" fill="#b4ddea"/><path d="M251.255,416.042a10.311,10.311,0,0,0-1.922,5.862l-25.322-.039q.006-2.914.012-5.827l27.232,0" transform="translate(1389.084 2237.877)" fill="#03a9de"/><path d="M10.264,365.025a10.472,10.472,0,0,0-2.455,6.558c-2.305,0-4.611-.023-6.915.013-.691.011-.906-.215-.892-.9.046-2.3.039-4.609.051-6.914a1.537,1.537,0,0,1,1.41-.533c.931-.027,1.863.006,2.794-.032.967-.039,1.049-.7,1.049-1.442,0-.731-.175-1.288-1.049-1.32-.931-.035-1.863,0-2.794-.031a1.536,1.536,0,0,1-1.41-.533v-9.735c.791-.9,1.9-.421,2.84-.654a3.583,3.583,0,0,0,1.644.131,1.441,1.441,0,0,1,1.223.347c.034.063.068.126.1.189,0,2.15.073,4.3-.017,6.448-.155,3.686,1.118,6.566,4.42,8.408" transform="translate(1558.501 2288.198)" fill="#03a9de"/><path d="M.163,274.867q.006-10.226.012-20.451a1.143,1.143,0,0,1,.789-.49,25.488,25.488,0,0,1,4.3.012,1.321,1.321,0,0,1,.7.427l.019.094a1.49,1.49,0,0,1,.531,1.4c0,2.532.112,5.065-.091,7.59a1.39,1.39,0,0,1,.029.475,16.789,16.789,0,0,0-.106,3.323,9.861,9.861,0,0,1,0,1.643,1.855,1.855,0,0,1-.718,1.346c-1.359,1.377-2.717,2.756-4.108,4.1-.368.356-.738.785-1.358.532" transform="translate(1558.378 2360.545)" fill="#6ec4e6"/><path d="M.163,302.12a81.847,81.847,0,0,0,5.848-5.8,1.775,1.775,0,0,0,0-2.043c-1.315-1.548-1.315-1.548.148-3.1.387-1.348,1.284-1.72,2.28-.8,2.2,2.039,4.3,4.187,6.372,6.36a1.375,1.375,0,0,1,.016,1.982,11.916,11.916,0,0,1-1.011,1.053c-1.226,1.181-1.713,1.185-2.967.031-.969-.891-1.021-.892-1.963.027-.871.85-1.7,1.74-2.581,2.581-.727.331-1.007,1.106-1.58,1.6a2.317,2.317,0,0,1-1.653.805,8.962,8.962,0,0,1-2.9.24q-.005-1.471-.011-2.942" transform="translate(1558.378 2333.292)" fill="#5a5a5b"/><path d="M425.75,256.22c0,5.378.021,10.757-.025,16.135-.009,1.048.276,1.413,1.364,1.392,3.436-.064,6.873-.026,10.31-.027q0,.974,0,1.948c-4.052,0-8.1-.042-12.155.032-1.207.022-1.484-.377-1.472-1.52.056-5.389.024-10.779.025-16.168,0-1.885,0-1.885,1.953-1.793" transform="translate(1238.007 2358.77)" fill="#6ec4e6"/><path d="M401.907,421.921a10.3,10.3,0,0,0-1.925-5.86l11.692.033a1.336,1.336,0,0,1,.479.929,33.871,33.871,0,0,1,0,3.945,1.222,1.222,0,0,1-.5.913l-9.744.041" transform="translate(1255.999 2237.86)" fill="#03a9de"/><path d="M455.561,381.915c-2.228,0-4.458-.037-6.685.017-.871.021-1.124-.287-1.084-1.118.059-1.213.058-2.433,0-3.646-.04-.832.213-1.139,1.084-1.118,2.227.054,4.457.018,6.685.017v5.848" transform="translate(1219.844 2268.121)" fill="#c0272d"/><path d="M447.864,421.918q.012-2.893.023-5.787l7.732-.02c.013,1.656,0,3.313.052,4.968.022.693-.22.905-.9.892-2.3-.046-4.6-.039-6.907-.052" transform="translate(1219.786 2237.822)" fill="#c0272d"/><path d="M5.994,223.42.2,223.47a11.407,11.407,0,0,1,6.755-10.546c-1.263,2.875-.909,5.921-.947,8.926C6,222.373,6,222.9,5.994,223.42" transform="translate(1558.351 2391.491)" fill="#03a9de"/><path d="M106.034,421.9a10.316,10.316,0,0,0-1.925-5.86l7.746-.005q.006,2.914.012,5.828l-5.833.038" transform="translate(1479.765 2237.878)" fill="#03a9de"/><path d="M.214,392.081c1.619,0,3.239.029,4.857-.016.757-.021.949.271.967.989.073,2.922.1,2.922-2.788,2.921l-3.036,0v-3.891" transform="translate(1558.34 2256.009)" fill="#f4b84c"/><path d="M22.342,276.537c1.131-1.16,2.273-2.308,3.385-3.486.392-.415.714-.481,1.081-.01a1.083,1.083,0,0,0,.172.172c.648.526,1.225,1.774,1.85,1.536.939-.357,1.617-1.406,2.4-2.171.353-.346.046-.58-.178-.8-2.263-2.268-4.514-4.55-6.8-6.791-.949-.929-1.1.5-1.691.653a17.508,17.508,0,0,1-.165-4.233c-.047-1.745-.01-3.492-.008-5.238,6.169-.017,12.339-.017,18.508-.068,1-.008.985.533.983,1.236q-.016,8.83-.006,17.66c0,1.1-.057,2.2.017,3.287.065.966-.281,1.247-1.239,1.24-5.561-.039-11.122-.02-16.684-.018-.527,0-1.055.016-1.582.025v-.055c-.954-.966-.424-1.952-.038-2.935" transform="translate(1541.982 2358.84)" fill="#b4ddea"/><path d="M230.2,256.165c3.571-.012,7.142-.01,10.713-.048.739-.008.99.252.986.989-.033,5.52-.036,11.039-.048,16.559a1.556,1.556,0,0,1-1.414.54c-3,.033-6,.059-9-.012-1.365-.032-1.743-.4-1.762-1.771-.069-4.948-.046-9.9-.013-14.843a1.55,1.55,0,0,1,.54-1.414" transform="translate(1384.836 2358.824)" fill="#b4ddea"/><path d="M302.17,256.165c2.922-.012,5.843-.008,8.764-.048.74-.01.99.253.986.989-.033,5.519-.035,11.039-.048,16.558a1.559,1.559,0,0,1-1.414.54c-2.352.033-4.7.059-7.054-.011-1.359-.04-1.742-.407-1.761-1.774-.07-4.947-.046-9.894-.013-14.841a1.551,1.551,0,0,1,.54-1.414" transform="translate(1330.406 2358.824)" fill="#b4ddea"/><path d="M366.143,256.165c2.922-.012,5.843-.008,8.764-.048.74-.01.99.253.986.989-.033,5.519-.035,11.039-.047,16.558a1.559,1.559,0,0,1-1.414.54c-2.352.033-4.7.059-7.054-.011-1.359-.04-1.742-.407-1.761-1.774-.07-4.947-.046-9.894-.013-14.841a1.551,1.551,0,0,1,.54-1.414" transform="translate(1282.023 2358.824)" fill="#b4ddea"/><path d="M225.916,256.244c0,5.379.022,10.758-.025,16.137-.009,1.05.281,1.411,1.365,1.39,3.436-.064,6.874-.026,10.311-.027.012.283.006.568.04.849.1.843-.252,1.127-1.1,1.119-4.17-.038-8.34-.025-12.51-.03q-.016-9.73-.032-19.46l1.952.022" transform="translate(1389.12 2358.745)" fill="#6ec4e6"/><path d="M297.87,256.064c0,5.377.021,10.755-.025,16.132-.009,1.043.268,1.423,1.36,1.4,2.788-.071,5.578-.026,8.368-.028.011.365.013.73.037,1.094.04.621-.236.866-.859.864q-4.988-.023-9.976,0c-.626,0-.861-.253-.86-.87.01-5.921-.021-11.843.026-17.764.012-1.48,1.235-.655,1.93-.823" transform="translate(1334.706 2358.925)" fill="#6ec4e6"/><path d="M361.843,256.064c0,5.377.021,10.755-.025,16.132-.009,1.043.268,1.423,1.36,1.4,2.788-.071,5.578-.026,8.368-.028.011.365.013.73.037,1.094.04.621-.236.866-.859.864q-4.988-.023-9.976,0c-.626,0-.861-.253-.86-.87.01-5.921-.021-11.843.026-17.764.012-1.48,1.235-.655,1.93-.823" transform="translate(1286.323 2358.925)" fill="#6ec4e6"/><path d="M63.826,428a3.9,3.9,0,1,1-3.877-3.887A3.932,3.932,0,0,1,63.826,428" transform="translate(1516.124 2231.768)" fill="#eee"/><path d="M359.7,427.966a3.9,3.9,0,1,1-3.913-3.851,3.934,3.934,0,0,1,3.913,3.851" transform="translate(1292.358 2231.768)" fill="#eee"/><path d="M14.971,339.971q.019,1.467.038,2.935c-.972-.052-1.968.259-2.912-.2l2.874-2.737" transform="translate(1549.353 2295.406)" fill="#6dc4e6"/><path d="M24.157,307.953c1.209,1.021,1.209,1.021,0,2.043v-2.043" transform="translate(1540.232 2319.621)" fill="#b3dbe8"/></g></svg>