<svg xmlns="http://www.w3.org/2000/svg" xmlns:xlink="http://www.w3.org/1999/xlink" width="97.351" height="73.061" viewBox="0 0 97.351 73.061"><defs><clipPath id="a"><rect width="97.351" height="73.06" fill="none"/></clipPath></defs><g transform="translate(0)"><g transform="translate(0)" clip-path="url(#a)"><path d="M218.791,52.332q4.844.015,9.688.028a5.4,5.4,0,0,1,5.494,3.915c.04.116.029.25.194.268V64.53a1.559,1.559,0,0,1-1.229.385q-8.074.009-16.148,0c-.32,0-.627-.082-.94-.1a1.754,1.754,0,0,1-1.222-.423A28.909,28.909,0,0,0,201.76,58.95a28.282,28.282,0,0,0-20.352,4.99,3.626,3.626,0,0,1-1.567.857,33.678,33.678,0,0,1-6.306-.019.894.894,0,0,1-.283-.185,2.131,2.131,0,0,1-.28-1.366c-.012-1.551.005-3.1-.008-4.653a5.578,5.578,0,0,0-3.395-5.549c-.277-.124-.61-.229-.618-.633l7.593-.052a1.353,1.353,0,0,1,.948-.357c3.365.014,6.731-.08,10.1.047a9.357,9.357,0,0,1,1.135-.059q14.223,0,28.446,0a2.158,2.158,0,0,1,1.621.358" transform="translate(-136.816 -42.08)" fill="#b4dbfe"/><path d="M395.257,118.067l18.632-.032v42.97a5.864,5.864,0,0,1-3.345,4.073,3.046,3.046,0,0,1-1.365.321,2.191,2.191,0,0,1-.938.07q-8.176.007-16.352-.008c-.338,0-.876.242-.989-.209-.109-.434.392-.681.74-.889A27.9,27.9,0,0,0,397.9,159.3,28.035,28.035,0,0,0,399.5,123.03a21.814,21.814,0,0,0-3.5-3.739c-.38-.307-.845-.606-.747-1.224" transform="translate(-316.538 -95.585)" fill="#3f6d8d"/><path d="M13.685,163.878c-2.818.008-5.636.056-8.453.012a5.509,5.509,0,0,1-5-3.748c-.072-.2-.042-.448-.236-.6v-43.16A1.281,1.281,0,0,1,.944,116c2.72-.017,5.44-.024,8.16,0a1.444,1.444,0,0,1,.639.16.788.788,0,0,1,.286.233,3.025,3.025,0,0,1,.239,1.667c0,13.231.024,26.462-.017,39.693a5.379,5.379,0,0,0,2.722,5.143,1.779,1.779,0,0,1,.7.625.371.371,0,0,1,.012.351" transform="translate(0 -93.927)" fill="#3f6d8d"/><path d="M9.9,64.535,0,64.56V56.575a7.432,7.432,0,0,1,2.115-3.088,5.935,5.935,0,0,1,4.069-1.1c.406.025.816-.007,1.224-.013a1.032,1.032,0,0,1,.848-.353c1.741-.024,3.482-.034,5.223.006a1.508,1.508,0,0,1,.633.183c.415.388.016.539-.229.691-.375.233-.8.38-1.177.608a4.7,4.7,0,0,0-2.449,4.209c-.025,1.831,0,3.662-.014,5.493,0,.463.068.961-.345,1.325" transform="translate(0 -42.11)" fill="#b4dbfe"/><path d="M296.664,10.712q-10.626.014-21.251.027c-3.32,0-6.64-.018-9.96-.027a1.069,1.069,0,0,1-.338-.856c.046-3.42,1.1-6.329,4.114-8.29a5.82,5.82,0,0,1,3.216-.988C277.958.56,283.469.569,288.981.569a.774.774,0,0,1,.458.083,8.375,8.375,0,0,1,7.2,7.7c.032.787.02,1.575.029,2.362" transform="translate(-214.69 -0.459)" fill="#477b9d"/><path d="M51.943,64.511q-.006-3.354-.011-6.708a5.29,5.29,0,0,1,3.946-5.24c.147-.043.288-.111.432-.166a.729.729,0,0,1,.443-.317,19.162,19.162,0,0,1,3.372-.068.917.917,0,0,1,.747.336l3.043.051a5.138,5.138,0,0,1,4.764,4.985,54.658,54.658,0,0,1,.15,5.684,1.722,1.722,0,0,1-.658,1.681,2.608,2.608,0,0,1-1.206.172q-6.809.007-13.618,0a1.875,1.875,0,0,1-1.425-.36l.023-.052" transform="translate(-42.045 -42.086)" fill="#daecfe"/><path d="M119.358,66.319a39.663,39.663,0,0,0,.065-6.605,5.614,5.614,0,0,0-1.856-4.187,7.664,7.664,0,0,0-2.588-1.308h10.265a5.992,5.992,0,0,1,3.754,3.1,6.644,6.644,0,0,1,.612,2.751c.018,2.088.012,4.177.016,6.265a1.022,1.022,0,0,1-.918.4c-2.812.026-5.624.022-8.436,0a1.626,1.626,0,0,1-.64-.157.657.657,0,0,1-.274-.256" transform="translate(-93.111 -43.905)" fill="#8ac9fe"/><path d="M243.894.194c-5.32,0-10.642.1-15.958-.027a8.576,8.576,0,0,0-7.246,4.976,15.228,15.228,0,0,0-.781,5.11l-11.035.008c0-2.164.107-4.3,1.341-6.2A8.208,8.208,0,0,1,217.407.025c8.237-.029,16.474-.012,24.711,0a3.743,3.743,0,0,1,1.775.17" transform="translate(-169.145 0)" fill="#3f6d8d"/><path d="M39.571,20.774l-.367.06-6.857-.046a3.174,3.174,0,0,1-1.524-3.213c.065-.594.007-1.2.012-1.8A2.418,2.418,0,0,1,33.1,13.095a89.838,89.838,0,0,1,9.95.079c-.468.543-1.109.363-1.686.37-2.309.03-2.933.657-2.957,3-.014,1.369-.081,2.744,1.071,3.784a.42.42,0,0,1,.091.443" transform="translate(-24.94 -10.524)" fill="#3f6d8d"/><path d="M70.043,21.53a6.026,6.026,0,0,1-1.215-6.22,1.979,1.979,0,0,1,2.046-1.362c.877.068,1.766-.008,2.65-.02a2.3,2.3,0,0,1,2.265,2.391c.026.69-.043,1.387.022,2.072a3.035,3.035,0,0,1-1.572,3.15l-4.2-.011" transform="translate(-55.411 -11.28)" fill="#477a9d"/><path d="M290.5,93.115c1.061,1.253,2.387,2.226,3.476,3.472a28.31,28.31,0,0,1,4.7,29.961,28.105,28.105,0,0,1-11.682,13.169,7.051,7.051,0,0,0-.623.432c-.037.027-.033.108-.083.3h18.132a2.131,2.131,0,0,1-1.207.142q-8.318.01-16.637,0a4.78,4.78,0,0,0-2.1.454,23.161,23.161,0,0,1-6.677,2.075c-2.549.433-4.783-.6-7.016-1.556a28.791,28.791,0,0,1-8.5-5.655c-.341-.322-.876-.624-.45-1.246a1.552,1.552,0,0,1,1.088.239,24.21,24.21,0,0,0,8.768,2.288,26.394,26.394,0,0,0,5.189-.394,22.5,22.5,0,0,0,10.253-5.125,21.578,21.578,0,0,0,7.194-13.444,21.851,21.851,0,0,0-17.071-24.331,21.549,21.549,0,0,0-11.824.751,22.183,22.183,0,0,0-2.792,1.172,1.4,1.4,0,0,1-.9.238c-.511-.454-.013-.738.216-1a18.588,18.588,0,0,1,2.979-2.634,30.153,30.153,0,0,1,9.182-4.644c.879-.269,1.79-.336,2.674-.552a28.361,28.361,0,0,1,12.9,5.4,1.958,1.958,0,0,0,.8.495" transform="translate(-211.781 -70.633)" fill="#365e7d"/><path d="M200.226,85.91c-.335.482-.9.414-1.367.535a28.342,28.342,0,0,0-13.348,7.6c-.176.178-.324.385-.485.579.031.573-.476.7-.816.929a21.138,21.138,0,0,0-8.584,10.693c-2.989,8.55-1.39,16.239,4.773,22.929a20.5,20.5,0,0,0,4.09,3.369c.32.2.777.342.724.875.433,1.1,1.481,1.626,2.3,2.308a27.717,27.717,0,0,0,12.023,5.927c.569.122,1.131.074,1.692.149a21.614,21.614,0,0,1-7.61.444,27.858,27.858,0,0,1-10.055-2.819,2.4,2.4,0,0,0-1.118-.121q-7.739-.024-15.479-.035c.17-.588.669-.449,1.085-.494,2.3-.013,4.609-.019,6.913-.007,2.369.012,4.739-.056,6.814.032a26.677,26.677,0,0,1-10.158-9.988,27.234,27.234,0,0,1-3.964-11.168,28.327,28.327,0,0,1,3.884-18.472,31.326,31.326,0,0,1,5.128-6.242,4.752,4.752,0,0,1,1.706-1.132,28.985,28.985,0,0,1,11.965-5.611,28.252,28.252,0,0,1,9.886-.278" transform="translate(-135.21 -69.321)" fill="#294b64"/><path d="M91.17,165.264c-.382.055-.8-.1-1.147.167H71.951q0-.078.006-.156c.351-.425.844-.38,1.314-.382,2.056-.012,4.113,0,6.17-.008a4.607,4.607,0,0,0,4.53-3.6,14.211,14.211,0,0,0,.343-3.2q-.007-19.22,0-38.441c0-.589-.121-1.219.386-1.7l10.081-.047-.021.051a1.15,1.15,0,0,1,.382.938,41.085,41.085,0,0,1-.187,6.441,29.43,29.43,0,0,0-3.674,9.781A27.491,27.491,0,0,0,93.417,151.9c.463,1,1.02,1.96,1.533,2.938A21.324,21.324,0,0,1,95,160.486a5.217,5.217,0,0,1-3.826,4.778" transform="translate(-58.266 -95.48)" fill="#365e7d"/><path d="M192.066,125.554c-.277-.288-.178-.651-.18-.985-.011-2.131-.011-4.262-.015-6.394l6.67,0a33.921,33.921,0,0,0-5.019,5.273c-.494.695-.971,1.4-1.456,2.1" transform="translate(-155.377 -95.699)" fill="#3f6d8d"/><path d="M68.481,117.9q-.006,20.335-.033,40.669a7.05,7.05,0,0,1-1.037,4.442,4.891,4.891,0,0,1-4.166,2.217c-2.5-.031-5-.005-7.507,0a6.192,6.192,0,0,1-3.347-3.053,5.327,5.327,0,0,1-.465-2.1q.011-21.081,0-42.161,7.572-.013,15.143-.028c.409,0,.819-.023,1.228-.035l.188.059" transform="translate(-42.046 -95.428)" fill="#477b9d"/><path d="M277.025,120.735a20.489,20.489,0,0,1,10.1,5.14,21.909,21.909,0,0,1,7.362,17.421,22.3,22.3,0,0,1-17.572,20.8,2.5,2.5,0,0,1-.284.021,13.5,13.5,0,0,1-4.993-1.682,22.171,22.171,0,0,1-10.083-10.314c-.208-.43-.755-1,.106-1.394a2.675,2.675,0,0,1,1.109.856c3.69,3.707,8.1,4.753,13.122,3.576a2.823,2.823,0,0,0,.817-.222c5.375-2.132,8.374-6.116,8.839-11.836a12.522,12.522,0,0,0-3.5-9.719,13.678,13.678,0,0,0-5.4-3.585,13.381,13.381,0,0,0-13.4,2.842c-.62.528-.945,1.359-1.761,1.676-.711-.225-.338-.7-.2-1.053a19.246,19.246,0,0,1,3.348-5.382,22.568,22.568,0,0,1,10.36-6.952,4.256,4.256,0,0,1,2.036-.191" transform="translate(-211.404 -97.73)" fill="#7fb2f9"/><path d="M230.193,118.4a22.268,22.268,0,0,0-15.5,12.736c-.1.24-.393.461-.131.768.212.462-.118.778-.317,1.118a13.043,13.043,0,0,0,.079,14.158c.233.392.627.74.444,1.28-.328.306-.072.584.055.852A22.409,22.409,0,0,0,227.324,160.9a13.344,13.344,0,0,1,2.471.886,18.2,18.2,0,0,1-5.689.475,24.524,24.524,0,0,1-9.532-2.763,23.7,23.7,0,0,1-8.336-8.276,22.249,22.249,0,0,1,7.371-29.985c.266-.168.52-.355.779-.533a24.277,24.277,0,0,1,7.281-2.565,19.83,19.83,0,0,1,8.523.266" transform="translate(-164.572 -95.397)" fill="#64a5f3"/><path d="M173,322.487a.917.917,0,0,1,.484-.427,5.655,5.655,0,0,0,3.11-5.324c.04-1.228,0-2.458.012-3.688,0-.336-.1-.7.174-.992a26.656,26.656,0,0,0,4.645,5.832,45.576,45.576,0,0,0,5.986,4.6Z" transform="translate(-140.092 -252.703)" fill="#3f6d8d"/><path d="M307.011,167.041a13.814,13.814,0,0,1,7.123,5.838,13.52,13.52,0,0,1-.945,15.453,12.658,12.658,0,0,1-6.155,4.378,2.756,2.756,0,0,1-1.259-.368,13.773,13.773,0,0,1-7.254-9.124,1.422,1.422,0,0,1,.071-1.359c.614-.155.806.4,1.12.7a3.707,3.707,0,0,0,4.836.6c1.9-1.647,2.268-3.346,1.17-5.273a4.02,4.02,0,0,0-1.335-1.322,3.886,3.886,0,0,0-4.99,1.055c-.2.23-.368.526-.75.485a1.243,1.243,0,0,1-.177-1.331,14.118,14.118,0,0,1,7.48-9.374c.343-.18.741-.149,1.065-.358" transform="translate(-241.61 -135.27)" fill="#64a5f3"/><path d="M258.472,178.735a12.049,12.049,0,0,0,2.512,6.217,13.567,13.567,0,0,0,4.987,4.1c.306.154.589.354.883.532a13.262,13.262,0,0,1-13.527-2.6,22.427,22.427,0,0,1-1.705-1.774,13.718,13.718,0,0,1-.206-16.556c4.094-4.975,9.228-6.57,15.415-4.738-.957.883-2.251,1.225-3.243,2.076-2.774,2.383-4.811,5.164-5.118,8.947a17.073,17.073,0,0,1,0,3.8" transform="translate(-201.43 -132.138)" fill="#3d8ad7"/><path d="M298.461,218.979a5.539,5.539,0,0,1,0-3.8,4.291,4.291,0,0,1,4.235-2.286,2.823,2.823,0,0,1,1.667.565c-.009.387-.285.615-.517.868a3.683,3.683,0,0,0,.36,5.755.914.914,0,0,1,.349.432,4.022,4.022,0,0,1-5.6-.976c-.153-.2-.238-.448-.491-.555" transform="translate(-241.419 -172.382)" fill="#7fb2f9"/><path d="M322.385,223c-1.865-.357-3.164-3.76-1.421-5.9a12.364,12.364,0,0,1,1.229-1.157c2.712,1.581,2.8,4.9.191,7.055" transform="translate(-259.252 -174.874)" fill="#9bc4f9"/></g></g></svg>