<svg id="Group_114" data-name="Group 114" xmlns="http://www.w3.org/2000/svg" xmlns:xlink="http://www.w3.org/1999/xlink" width="155.532" height="155.875" viewBox="0 0 155.532 155.875">
  <defs>
    <clipPath id="clip-path">
      <rect id="Rectangle_125" data-name="Rectangle 125" width="155.532" height="155.875" fill="none"/>
    </clipPath>
  </defs>
  <g id="Group_113" data-name="Group 113" clip-path="url(#clip-path)">
    <path id="Path_615" data-name="Path 615" d="M136.456,245.232c-1.951-.738-3.91-1.522-4.982-3.461a34.448,34.448,0,0,1-1.522-3.647c-6.473.228-8.97-1.812-9.9-8.274-5.248-.254-8.145-2.968-8.3-8.485-.531-.048-1.024-.087-1.514-.139a7.121,7.121,0,0,1-6.344-4.713,7.342,7.342,0,0,1,1.519-8.052c1.018-1.113,2.184-2.091,3.318-3.162-1.192-1.513-2.217-2.826-3.256-4.129-.676-.848-.971-1.758-.044-2.549,1.007-.859,1.868-.366,2.572.552.247.322.509.632.749.959,1.238,1.7,2.2,3.021,5.018,2.369,4.383-1.013,7.958,2.237,8.482,6.775.046.4.1.8.149,1.182,6.284,1.173,7.881,2.731,8.623,8.542a7.936,7.936,0,0,1,6.469,2.542,8.225,8.225,0,0,1,1.934,6.6c6.3,2.027,8.007,4.283,7.435,9.89a3.542,3.542,0,0,0,3.581-.848,3.929,3.929,0,0,0,1.43-4.222,6.555,6.555,0,0,0-1.5-2.566c-1.607-1.755-3.333-3.4-5.032-5.074-.846-.831-1.416-1.732-.378-2.73.963-.925,1.83-.382,2.622.414,3.183,3.2,6.365,6.4,9.581,9.56a4.219,4.219,0,0,0,4.587,1.163,4.159,4.159,0,0,0,2.9-3.4,4.471,4.471,0,0,0-1.47-4.115c-2.8-2.79-5.616-5.568-8.371-8.4a2.945,2.945,0,0,1-.848-1.806,1.649,1.649,0,0,1,1.094-1.206,2.571,2.571,0,0,1,1.841.643c2.989,2.888,5.9,5.851,8.846,8.789.717.716,1.41,1.46,2.165,2.135a4.353,4.353,0,1,0,6.108-6.205c-3.033-3.13-6.15-6.179-9.232-9.263-.322-.322-.652-.639-.96-.975a1.525,1.525,0,0,1-.128-2.3,1.57,1.57,0,0,1,2.425.049c1.819,1.765,3.593,3.575,5.385,5.368.86.861,1.7,1.74,2.585,2.576a4.372,4.372,0,1,0,6.132-6.219c-1.013-1.065-2.074-2.084-3.114-3.123-5.275-5.262-10.567-10.508-15.806-15.808a1.5,1.5,0,0,0-2.184-.3A20.244,20.244,0,0,1,147,192.835a4.156,4.156,0,0,0-3.705,1.394c-4.667,4.7-11.668,5.17-16.487,1.123a7.046,7.046,0,0,1-2.1-3.027,4.428,4.428,0,0,1,1.442-4.675c3.724-3.659,7.4-7.369,11.11-11.041a11.842,11.842,0,0,1,1.389-1.04c-3.966-2.521-7.635-4.795-11.232-7.178a1.565,1.565,0,0,0-2.405.248q-12.377,12.463-24.835,24.843c-1.828,1.825-2.262,1.827-4.068.026-2.225-2.219-4.46-4.43-6.665-6.669-1.208-1.226-1.228-1.9-.039-3.091q14.671-14.684,29.371-29.339c1.124-1.121,1.8-1.1,2.973.048,2.2,2.168,4.38,4.365,6.567,6.552,1.9,1.9,1.914,2.067.24,4.389,4.148,2.046,7.32,5.743,12.036,6.708a5.9,5.9,0,0,0,2.7-.4c2.939-.9,5.861-1.847,8.773-2.828a14.331,14.331,0,0,0,3.293-1.379c2.751-1.794,5.41-3.73,8.1-5.6-1.2-2.17-1.192-2.233.6-4.025,2.186-2.187,4.362-4.383,6.562-6.557,1.19-1.176,1.93-1.192,3.092-.032q16.737,16.7,33.452,33.43c1.283,1.284,1.278,1.914.015,3.192-2.173,2.2-4.369,4.376-6.557,6.562-1.935,1.932-2.275,1.938-4.175.04q-14.523-14.51-29.036-29.03a17.207,17.207,0,0,1-1.21-1.533c-2.138,1.484-4.116,2.707-5.922,4.144a22.68,22.68,0,0,1-10.194,4.664,18.488,18.488,0,0,0-10.047,5.6c-3.692,3.833-7.52,7.534-11.281,11.3-1.468,1.469-1.41,2.122.255,3.388,3.433,2.612,8.422,2.608,11.39-.581a8.354,8.354,0,0,1,7.784-2.838,15.94,15.94,0,0,0,12.036-4.125q2.369-2.025,4.741-4.046c.845-.724,1.751-.951,2.522-.007s.362,1.791-.473,2.5c-1.345,1.148-2.685,2.3-4.1,3.517.358.4.633.746.942,1.056,5.412,5.412,10.846,10.8,16.222,16.251.792.8,1.438.995,2.287.275,1.96-1.663,3.957-3.287,5.841-5.034.861-.8,1.642-1.527,2.706-.581.985.876.593,1.888-.213,2.652-2.265,2.146-4.584,4.233-6.936,6.394,2.672,4.84.617,10.52-5.689,11.919.918,3.07.548,5.935-1.794,8.258a7.517,7.517,0,0,1-8.11,1.731c-3.156,7.152-5.8,8.187-13.025,5.1-1.041,3.333-3.178,5.445-6.737,5.9a1.829,1.829,0,0,1-.751.059c-2.105-.736-3.409.353-4.822,1.756-.952.946-2.408,1.383-3.638,2.047Zm-5.126-22.979a5.908,5.908,0,0,0-2.044.863,53.362,53.362,0,0,0-4.938,4.918,4.225,4.225,0,0,0,.378,5.671,4.181,4.181,0,0,0,5.766.337,56.84,56.84,0,0,0,4.721-4.708,3.949,3.949,0,0,0,.518-4.673c-.8-1.585-2.156-2.348-4.4-2.407M120.1,226.536a12.218,12.218,0,0,0,2.367-1.354,48.93,48.93,0,0,0,3.776-3.726,4.423,4.423,0,0,0,.141-6.28,4.378,4.378,0,0,0-6.263.05c-1.331,1.24-2.6,2.551-3.866,3.854a3.877,3.877,0,0,0-.869,4.6c.791,1.75,2.17,2.743,4.714,2.856m-13.516-12.79a4.068,4.068,0,0,0,2.307,3.814,3.838,3.838,0,0,0,4.433-.315,42.585,42.585,0,0,0,4.851-4.8,4.007,4.007,0,0,0,.306-4.719,4.05,4.05,0,0,0-4.047-2.158c-2.5.12-7.741,5.38-7.849,7.874,0,.1,0,.2,0,.3m30.731,28.2c2.425.031,5.413-2.3,6.184-4.5a4.327,4.327,0,0,0-6.736-4.9,14.892,14.892,0,0,0-2.359,2.346,4.168,4.168,0,0,0-.462,4.7,4.03,4.03,0,0,0,3.373,2.353" transform="translate(-52.593 -89.358)" fill="#161615"/>
    <path id="Path_616" data-name="Path 616" d="M67.455,0a9.475,9.475,0,0,1,.869,2.59c.1,3.233.042,6.471.042,9.935h3.129c3.358,0,3.446.09,3.446,3.53v3.611c.7.033,1.238.078,1.78.082,2.887.018,5.776-.054,8.658.055A9.387,9.387,0,0,1,94.42,29.08c.071,10.046.017,20.092.035,30.139,0,1.178-.382,2.111-1.632,2.1s-1.616-.96-1.614-2.127q.021-14.537.006-29.073c0-4.643-2.483-7.121-7.123-7.13-2.977-.006-5.955,0-9.152,0,0,1.648.012,3.151,0,4.654-.019,1.915-.53,2.429-2.439,2.429q-25.218.006-50.437,0c-2,0-2.478-.493-2.5-2.52-.015-1.369-.029-2.738-.053-4.107,0-.088-.08-.176-.154-.328-3.7,0-7.442-.206-11.149.069-2.643.2-4.721,2.927-4.9,5.65-.037.556-.02,1.116-.02,1.674,0,35.061.047,70.121-.059,105.181-.014,4.559,2.675,7.946,7.653,7.639a30.661,30.661,0,0,1,3.493,0c1.015.054,1.295-.374,1.284-1.341-.043-3.6.018-7.205-.049-10.806a3.441,3.441,0,0,0-.708-1.895,14.642,14.642,0,1,1,25.583-12.528,14.529,14.529,0,0,1-2.818,12.47,4.294,4.294,0,0,0-.82,2.307c-.089,3.346.035,6.7-.072,10.044-.046,1.459.478,1.806,1.824,1.762,2.681-.087,5.367-.013,8.051-.028,1.136-.006,2.129.293,2.131,1.594s-.99,1.6-2.128,1.594c-2.582-.016-5.165,0-7.747,0-2.1,0-2.1,0-2.1,2.032,0,1.573.095,3.154-.042,4.715-.067.763-.426,1.978-.9,2.114a3.1,3.1,0,0,1-2.359-.725c-2.082-1.693-4.039-3.54-6.045-5.325-.373-.332-.758-.649-1.217-1.042-2.434,2.16-4.777,4.325-7.23,6.356-.613.507-1.773,1-2.336.738s-.936-1.446-.987-2.252c-.133-2.114-.045-4.242-.045-6.611-1.649,0-3.15,0-4.651,0-6.041,0-8.837-2.019-10.785-7.766-.029-.086-.132-.147-.2-.219V27.7a6.262,6.262,0,0,0,.36-.8,9.489,9.489,0,0,1,9.26-7.137c2.021-.053,4.044-.017,6.066-.02,1.245,0,2.49,0,3.637,0a2.665,2.665,0,0,0,.2-.528c.018-1.367.028-2.734.038-4.1.015-2.162.436-2.6,2.543-2.606,1.292,0,2.585,0,4.03,0,0-3.468-.063-6.7.042-9.929A9.443,9.443,0,0,1,27.043,0ZM22.783,26.709H71.591V15.868H22.867c-.034.4-.08.69-.08.985-.005,3.241,0,6.481,0,9.855m3.5,81.9a11.44,11.44,0,1,0,.009,22.881,11.44,11.44,0,0,0-.009-22.881m7.208,24.217a15.6,15.6,0,0,1-14.539.039V150.4c1.72-1.523,3.212-2.847,4.708-4.168,2.59-2.289,2.589-2.286,5.18.006,1.48,1.308,2.966,2.61,4.651,4.091Z" fill="#161615"/>
    <path id="Path_617" data-name="Path 617" d="M272.6,0a15.47,15.47,0,0,1,1.351,1.791c2.062,3.722,4.1,7.454,6.094,11.214a5.162,5.162,0,0,1,.647,2.285q.062,15.675.016,31.35a8.592,8.592,0,0,1-16.414,3.81c-1.079-2.319-.8-4.77-.7-7.185.047-1.033.966-1.294,1.922-1.291q5.089.018,10.177,0c.542,0,1.085-.051,1.708-.082V16.3H266.758v1.673q0,6.924,0,13.849a10.207,10.207,0,0,1-.019,1.216c-.118.977-.635,1.644-1.669,1.6a1.522,1.522,0,0,1-1.533-1.715c-.006-6.037-.016-12.073.018-18.11a3.588,3.588,0,0,1,.487-1.562q3.126-5.909,6.312-11.786A14.3,14.3,0,0,1,271.388,0Zm-.534,5.059L267.9,12.848h8.327c-.222-.479-.352-.8-.518-1.11-1.154-2.126-2.314-4.248-3.641-6.679" transform="translate(-156.533)" fill="#161615"/>
    <path id="Path_618" data-name="Path 618" d="M105.813,101.941q11.238,0,22.475,0c.455,0,1.02-.142,1.34.073.526.353,1.165.9,1.245,1.448.066.448-.5,1.175-.982,1.467a3.6,3.6,0,0,1-1.769.224q-22.171.015-44.342.008c-.2,0-.405,0-.608,0-1.137-.021-2.237-.191-2.235-1.65,0-1.491,1.106-1.576,2.249-1.574q11.313.015,22.627,0" transform="translate(-48.083 -60.534)" fill="#161615"/>
    <path id="Path_619" data-name="Path 619" d="M106.109,134.1q11.083,0,22.166,0c.505,0,1.122-.139,1.489.1.526.337,1.194.953,1.2,1.46s-.642,1.142-1.158,1.493c-.359.244-.98.128-1.484.128q-22.318.007-44.636,0c-.5,0-1.131.114-1.482-.134-.5-.356-1.115-1.007-1.1-1.514s.672-1.111,1.194-1.438c.371-.233.984-.091,1.49-.091q11.159,0,22.318,0" transform="translate(-48.184 -79.64)" fill="#161615"/>
    <path id="Path_620" data-name="Path 620" d="M44.065,201.574c-3.036,0-6.072-.01-9.107.007-1.109.006-2.125-.172-2.156-1.532-.033-1.444,1.03-1.69,2.19-1.691,6.173,0,12.346-.014,18.519.009,1.47.005,2.231.695,2.091,1.791-.147,1.156-.959,1.422-1.973,1.419-3.187-.01-6.375,0-9.563,0" transform="translate(-19.486 -117.837)" fill="#161615"/>
    <path id="Path_621" data-name="Path 621" d="M90.542,169.468q-3.787,0-7.573,0c-1.117,0-2.069-.272-2.047-1.642.021-1.276.934-1.556,1.985-1.558q7.649-.013,15.3,0c1.113,0,2.093.3,2.058,1.648s-1.049,1.558-2.147,1.557q-3.787,0-7.573,0" transform="translate(-48.074 -98.771)" fill="#161615"/>
    <path id="Path_622" data-name="Path 622" d="M40.611,233.724c-1.975,0-3.95-.016-5.924.006-1.058.012-1.835-.351-1.892-1.491-.061-1.225.749-1.72,1.847-1.726q6.077-.034,12.153,0c1.01.007,1.819.443,1.819,1.6,0,1.244-.811,1.619-1.926,1.61-2.026-.015-4.051,0-6.077,0" transform="translate(-19.48 -136.932)" fill="#161615"/>
    <path id="Path_623" data-name="Path 623" d="M56.47,281.918a5.553,5.553,0,0,1,5.646,5.514A5.679,5.679,0,0,1,56.57,293.1a5.6,5.6,0,0,1-5.614-5.571,5.479,5.479,0,0,1,5.514-5.616" transform="translate(-30.271 -167.48)" fill="#161615"/>
  </g>
</svg>
