<svg id="Group_120" data-name="Group 120" xmlns="http://www.w3.org/2000/svg" xmlns:xlink="http://www.w3.org/1999/xlink" width="155.875" height="154.589" viewBox="0 0 155.875 154.589">
  <defs>
    <clipPath id="clip-path">
      <rect id="Rectangle_133" data-name="Rectangle 133" width="155.875" height="154.589" fill="none"/>
    </clipPath>
  </defs>
  <g id="Group_119" data-name="Group 119" clip-path="url(#clip-path)">
    <path id="Path_648" data-name="Path 648" d="M0,166.357c.8-1.845,2.155-2.5,4.2-2.469,7.758.1,15.517.015,23.276.057a7.581,7.581,0,0,0,5.506-2.1c2.291-2.149,4.649-4.225,6.973-6.338a14.985,14.985,0,0,1,10.495-4.045q27.536.054,55.072,0a14.763,14.763,0,0,1,10.267,3.826c2.491,2.23,5,4.444,7.443,6.723a7.086,7.086,0,0,0,5.1,1.93c7.86-.022,15.721.033,23.58-.04,1.826-.017,3.159.484,3.959,2.156v44.97c-.8,1.673-2.136,2.173-3.963,2.156-7.864-.072-15.729.022-23.592-.06a8.414,8.414,0,0,0-6.479,2.688q-12.566,12.7-25.285,25.251A11.4,11.4,0,0,1,77.624,237.1a3.815,3.815,0,0,0-.373-.593c-8.011,3.071-12.6,1.146-16.878-7.048a11.151,11.151,0,0,1-11-.8c-3.624-2.232-5.022-5.633-5.266-9.657-3.91-.33-7.176-1.728-9.474-4.877a2.121,2.121,0,0,0-1.972-1c-9.488.036-18.976-.028-28.463.063-2.044.02-3.4-.624-4.2-2.469V201.3c1.382-2.007,2.572-2.6,4.167-2.092,1.474.474,2.108,1.706,2.113,4.117,0,1.2,0,2.4,0,3.634H32.523a11.831,11.831,0,0,1,3.746-7.848q9.549-9.481,19.053-19.007c.365-.365.711-.749,1.125-1.187-2.554-.814-3.63-2.033-3.386-3.656.281-1.873,1.635-2.76,4.233-2.764,2.435,0,4.871-.028,7.305.005a21.6,21.6,0,0,1,14.925,5.808,19.372,19.372,0,0,0,3.1,2.423c4.147,2.5,10.036,2.426,13.412-.129a6.252,6.252,0,0,0-.451-.565c-5.881-5.873-11.747-11.762-17.659-17.6a16.774,16.774,0,0,0-12.086-4.862c-5.124-.043-10.248-.011-15.372-.009a8.879,8.879,0,0,0-6.233,2.364q-3.868,3.542-7.8,7.02a11.855,11.855,0,0,1-8.191,3.064c-6.747-.033-13.495-.01-20.242-.01H6.271c0,1.862.06,3.53-.015,5.192a3.128,3.128,0,0,1-3.23,3.287C1.449,178.4.679,177.294,0,176.08Zm81.876-8.794c.586.626.94,1.027,1.317,1.4q9.735,9.724,19.472,19.445c1.4,1.4,1.67,3.05.652,4.334a11.054,11.054,0,0,1-1.867,1.774,19.535,19.535,0,0,1-25.586-1.229,16.255,16.255,0,0,0-8.185-4.362,3.429,3.429,0,0,0-3.522.991C58.7,185.5,53.138,190.975,47.615,196.488c-2.439,2.434-4.906,4.842-7.308,7.312a5.056,5.056,0,0,0,.965,8.147c2.362,1.36,4.535.973,6.828-1.3,4.321-4.279,8.614-8.586,12.923-12.877.394-.392.777-.992,1.241-1.077,1.074-.2,2.4-.516,3.238-.068a3.7,3.7,0,0,1,1.42,2.7,3.8,3.8,0,0,1-1.234,2.435c-4.506,4.595-9.1,9.1-13.632,13.673a5.047,5.047,0,0,0,.862,8.158c2.349,1.4,4.563,1.034,6.834-1.217,5.074-5.031,10.112-10.1,15.191-15.126a5.271,5.271,0,0,1,1.962-1.343,2.828,2.828,0,0,1,3.423,1.287,3.12,3.12,0,0,1-.638,4c-3.894,3.918-7.825,7.8-11.713,11.723a5.775,5.775,0,0,0-1.286,1.832,5.21,5.21,0,0,0,8.671,5.4c2.9-2.831,5.749-5.718,8.62-8.58,1.938-1.933,3.858-3.883,5.821-5.789a2.946,2.946,0,0,1,3.64-.517,2.751,2.751,0,0,1,1.483,3.326,4.782,4.782,0,0,1-1.266,2c-3.012,3.078-6.112,6.072-9.111,9.164a5.117,5.117,0,0,0,6.664,7.707,12.581,12.581,0,0,0,1.727-1.476q12.495-12.446,24.963-24.919a12.824,12.824,0,0,1,9.649-4.014c6.848.073,13.7.021,20.545.021h1.569V170c-7.322,0-14.524-.039-21.725.017a12.452,12.452,0,0,1-8.82-3.437c-2.319-2.12-4.688-4.186-6.977-6.338a9.706,9.706,0,0,0-7.029-2.693c-7.152.04-14.305.013-21.458.013H81.876" transform="translate(0 -89.977)" fill="#161615"/>
    <path id="Path_649" data-name="Path 649" d="M0,238.27c.825-1.294,1.832-2.352,3.539-2.014a3.047,3.047,0,0,1,.678,5.812,3.064,3.064,0,0,1-3.571-.882c-.223-.257-.431-.526-.645-.789Z" transform="translate(0 -140.316)" fill="#161615"/>
    <path id="Path_650" data-name="Path 650" d="M179.532,26.566a26.692,26.692,0,0,1-53.384.143,26.692,26.692,0,0,1,53.384-.143M152.9,47.02a20.427,20.427,0,1,0-20.5-20.382A20.353,20.353,0,0,0,152.9,47.02" transform="translate(-74.941 0)" fill="#161615"/>
    <path id="Path_651" data-name="Path 651" d="M169.288,59.072c3.72-3.725,7.391-7.426,11.1-11.089a5.2,5.2,0,0,1,1.957-1.352,2.8,2.8,0,0,1,3.421,1.282,2.968,2.968,0,0,1-.207,3.539,7.123,7.123,0,0,1-.721.778q-6.5,6.494-13.01,12.983c-1.9,1.893-3.437,1.886-5.352-.009q-3.024-2.991-6.024-6.005c-1.675-1.684-1.847-3.408-.505-4.787,1.325-1.361,3.218-1.167,4.915.51,1.332,1.316,2.659,2.639,3.993,3.954a1.992,1.992,0,0,0,.434.2" transform="translate(-94.489 -27.608)" fill="#161615"/>
  </g>
</svg>
