<svg id="Group_118" data-name="Group 118" xmlns="http://www.w3.org/2000/svg" xmlns:xlink="http://www.w3.org/1999/xlink" width="148.112" height="147.861" viewBox="0 0 148.112 147.861">
  <defs>
    <clipPath id="clip-path">
      <rect id="Rectangle_132" data-name="Rectangle 132" width="148.112" height="147.861" fill="none"/>
    </clipPath>
  </defs>
  <g id="Group_117" data-name="Group 117" clip-path="url(#clip-path)">
    <path id="Path_642" data-name="Path 642" d="M3.612,112.936,0,109.472c1.392-1.3,2.759-2.565,4.123-3.838A8.073,8.073,0,0,0,6.7,99.382c-.028-6.534.026-13.068-.029-19.6A7.729,7.729,0,0,1,9.08,73.94c3.746-3.71,7.449-7.466,11.218-11.152a3.185,3.185,0,0,0,1.031-2.52q-.044-26.21-.02-52.421C21.31,2.971,24.279,0,29.157,0q28.7,0,57.4,0c4.876,0,7.832,2.967,7.833,7.859q0,14.587,0,29.173v1.672c2.686.257,5.325.317,7.89.783,22.456,4.081,37.372,17.015,43.762,38.816,8.527,29.091-10.231,60.035-40.014,66.235-14.794,3.079-29.363,2.043-42.9-5.6A53.836,53.836,0,0,1,46.4,124.184c-1.092,1.136-2.112,2.222-3.158,3.283a12.046,12.046,0,0,1-9.268,3.82c-.963-.028-1.929.022-2.893-.009a8.353,8.353,0,0,0-6.532,2.664c-4.119,4.2-8.319,8.315-12.463,12.489a7.58,7.58,0,0,0-.9,1.432l-3.75-3.833c1.8-1.784,3.635-3.595,5.463-5.414q4.2-4.185,8.4-8.382a12.089,12.089,0,0,1,9.272-3.812c.608.019,1.224-.053,1.826.011,4.14.443,7.065-1.526,9.5-4.8-.507-.029-.934-.073-1.361-.073-4.01-.005-8.019.016-12.029-.01a7.174,7.174,0,0,1-7.194-7.118c-.023-10.129-.008-20.259-.007-30.389a7.047,7.047,0,0,1,2.278-5.124q4.036-4.03,8.066-8.067a4.338,4.338,0,0,0,1.1-4.623,3.724,3.724,0,0,0-3.409-2.837,5.451,5.451,0,0,0-3.594,1.056c-4.573,4.311-9,8.78-13.383,13.283a3.9,3.9,0,0,0-.779,2.493c-.062,6.584-.057,13.168-.025,19.752A11.642,11.642,0,0,1,8.4,108.269c-1.547,1.658-3.246,3.176-4.786,4.667M40.8,43.76v1.893c0,15.2-.026,30.39.025,45.585a52.25,52.25,0,0,0,.554,7.862c2.7,17.279,12.045,29.78,27.771,37.332,11.407,5.478,23.545,5.814,35.693,3.332,27.754-5.67,44.709-35.111,35.969-62.036a48.737,48.737,0,0,0-46.73-33.957c-17.258-.059-34.515-.012-51.773-.012ZM36.409,4.86c-2.332,0-4.51,0-6.689,0-2.759,0-3.541.774-3.541,3.5q0,24.375,0,48.749v1.5a9.853,9.853,0,0,1,9.773,3.124V38.861H89.526V23.238c0-5.113.009-10.226-.005-15.338-.005-1.818-.787-2.929-2.332-2.99-2.624-.1-5.256-.029-7.9-.029-.374,1.481-.7,2.852-1.067,4.211a7.222,7.222,0,0,1-7.135,5.49q-13.24.017-26.481,0a7.227,7.227,0,0,1-7.126-5.5c-.369-1.357-.693-2.727-1.071-4.22M41.7,116.7c-.292-.649-.47-1.06-.661-1.465a52.162,52.162,0,0,1-5.113-22.721c.029-5.721.006-11.442.006-17.164V73.557c-3,3.007-5.81,5.7-8.444,8.545a5.046,5.046,0,0,0-1.247,3.051c-.12,5.618-.057,11.24-.057,16.86,0,3.9-.014,7.8.006,11.7.01,1.914.9,2.952,2.684,2.972,4.206.047,8.413.015,12.828.015M74.144,4.922H41.565c.241.969.475,1.836.67,2.712a2.445,2.445,0,0,0,2.606,2.079c8.675.021,17.35.051,26.023-.055a3.455,3.455,0,0,0,2.377-1.487,11.162,11.162,0,0,0,.9-3.249" transform="translate(0 -0.001)" fill="#161615"/>
    <path id="Path_643" data-name="Path 643" d="M209.71,140.365v53.409H136.818V140.365h1.558c5.479,0,10.958-.017,16.437.015,1.024.006,1.531-.115,1.8-1.36a17.061,17.061,0,0,1,33.3.169c.211.99.567,1.2,1.476,1.192,5.529-.034,11.059-.017,16.589-.017h1.735M170.8,181.673c0-7.285-.011-14.218.014-21.151,0-.853-.468-.9-1.119-1.065-6.975-1.731-11.388-6.094-13.127-13.048-.239-.958-.545-1.215-1.468-1.2-3.551.044-7.1.018-10.654.018H141.64v34.04h1.7c6.088,0,12.177.063,18.265-.025,3.206-.046,6.259.276,9.2,2.435m34.035-36.448c-4.7,0-9.311-.024-13.916.051-.332.005-.83.693-.949,1.143-1.825,6.868-6.145,11.253-13.044,12.991-1.026.258-1.279.589-1.274,1.562.036,6.531.018,13.062.022,19.593,0,.272.048.545.093,1.04,2.884-2.138,6-2.416,9.251-2.368,5.985.089,11.973.025,17.96.025h1.857Zm0,38.957c-.306-.022-.548-.056-.789-.056-6.948,0-13.9-.014-20.844.015a7.683,7.683,0,0,0-2.391.371,6.956,6.956,0,0,0-4.579,4.367h28.6Zm-63.205,4.724h28.5c-.9-2.968-3.59-4.764-7.174-4.777-6.441-.022-12.881-.006-19.322-.006h-2Zm31.993-56.191-.811.01-2.481,7.527h5.834l-2.542-7.537m-.777,20.16.809-.013,2.475-7.524h-5.831l2.547,7.536M167.589,132.1a12.011,12.011,0,0,0-6.2,8.194h3.974l2.231-8.194m0,21.406-2.229-8.24h-3.979a12.107,12.107,0,0,0,6.208,8.24m11.3-21.41,2.224,8.218h4a12.11,12.11,0,0,0-6.22-8.218m-.017,21.4a12.037,12.037,0,0,0,6.21-8.169h-3.968l-2.242,8.169" transform="translate(-81.28 -74.722)" fill="#161615"/>
    <path id="Path_644" data-name="Path 644" d="M83.855,47.824c5.477-.475,7.7,1.713,7.249,7.247-.073.9.013,1.819-.018,2.728a4.792,4.792,0,0,1-4.558,4.6q-2.733.079-5.469,0a4.782,4.782,0,0,1-4.569-4.581c-.043-1.667-.02-3.336-.008-5a4.8,4.8,0,0,1,4.942-4.985c.81-.009,1.621,0,2.431,0m2.337,4.986H81.451v4.623h4.741Z" transform="translate(-45.426 -28.374)" fill="#161615"/>
    <path id="Path_645" data-name="Path 645" d="M131.623,62.47c-5.5.479-7.672-1.841-7.219-7.127.082-.953-.014-1.92.019-2.88a4.8,4.8,0,0,1,4.588-4.565c1.771-.045,3.546-.038,5.318,0a4.773,4.773,0,0,1,4.695,4.766c.027,1.617.018,3.235,0,4.852a4.786,4.786,0,0,1-4.973,4.955c-.81.009-1.621,0-2.432,0m-2.311-4.952h4.741V52.866h-4.741Z" transform="translate(-73.871 -28.436)" fill="#161615"/>
    <path id="Path_646" data-name="Path 646" d="M187.124,55.242c.473,5.506-1.747,7.7-7.249,7.248-.855-.07-1.722,0-2.582-.013a4.787,4.787,0,0,1-4.775-4.69c-.034-1.718-.03-3.437,0-5.155A4.78,4.78,0,0,1,177.25,47.9c1.671-.029,3.343-.023,5.014,0a4.782,4.782,0,0,1,4.857,4.915c.011.808,0,1.617,0,2.426m-9.647,2.268h4.654V52.786h-4.654Z" transform="translate(-102.474 -28.446)" fill="#161615"/>
    <rect id="Rectangle_127" data-name="Rectangle 127" width="19.309" height="4.716" transform="translate(65.265 94.902)" fill="#161615"/>
    <rect id="Rectangle_128" data-name="Rectangle 128" width="14.422" height="4.688" transform="translate(65.239 85.165)" fill="#161615"/>
    <rect id="Rectangle_129" data-name="Rectangle 129" width="7.095" height="4.726" transform="translate(65.281 75.425)" fill="#161615"/>
    <path id="Path_647" data-name="Path 647" d="M264.156,233.827c-.007,1.6-.014,3.094-.021,4.671l-19.294-.088c.007-1.493.014-3.027.021-4.671l19.294.088" transform="translate(-145.454 -138.858)" fill="#161615"/>
    <rect id="Rectangle_130" data-name="Rectangle 130" width="14.422" height="4.677" transform="translate(104.266 85.197)" fill="#161615"/>
    <rect id="Rectangle_131" data-name="Rectangle 131" width="7.081" height="4.719" transform="translate(111.552 75.398)" fill="#161615"/>
  </g>
</svg>
