<svg xmlns="http://www.w3.org/2000/svg" xmlns:xlink="http://www.w3.org/1999/xlink" width="77.155" height="82.238" viewBox="0 0 77.155 82.238"><defs><clipPath id="a"><rect width="77.155" height="82.238" fill="none"/></clipPath></defs><g transform="translate(0)"><g transform="translate(0)" clip-path="url(#a)"><path d="M203.547,36.356c-.926-1.7-1.855-3.291-2.855-4.841-2.144-3.324-4.313-6.632-6.447-9.963-.951-1.484-1.758-3.05-2.569-4.616a9.546,9.546,0,0,1-.433-7.925A12.8,12.8,0,0,1,201.3.242,12.974,12.974,0,0,1,214.494,5.8a13.569,13.569,0,0,1,2.218,6.536,8.344,8.344,0,0,1-.863,4.055,42.954,42.954,0,0,1-3.211,5.8c-2.46,3.874-5.133,7.609-7.535,11.521-.519.846-1.009,1.71-1.557,2.643" transform="translate(-162.983 -0.001)" fill="#03a9de"/><path d="M10.215,267.924c-.722-1.2-1.374-2.335-2.08-3.437-1.721-2.686-3.477-5.351-5.2-8.036a40.1,40.1,0,0,1-2.188-3.973,7.369,7.369,0,0,1-.21-6.009,9.884,9.884,0,0,1,8.4-6.9,9.794,9.794,0,0,1,9.732,4.322,9.809,9.809,0,0,1,1.831,5.9,6.3,6.3,0,0,1-.679,2.535,50.43,50.43,0,0,1-4.2,7.121c-1.832,2.771-3.742,5.494-5.406,8.471" transform="translate(0 -204.785)" fill="#03a9de"/><path d="M231.8,399.941c-.619-1.013-1.2-2-1.815-2.963-1.381-2.154-2.793-4.289-4.168-6.446-.562-.882-1.037-1.815-1.523-2.743a6.35,6.35,0,0,1,.288-6.338,8.226,8.226,0,0,1,13.651-1.322,7.866,7.866,0,0,1,1.873,5.3,7.115,7.115,0,0,1-1.111,3.17c-1.256,2.389-2.832,4.577-4.315,6.823-.977,1.48-1.971,2.948-2.88,4.524" transform="translate(-191.192 -322.472)" fill="#03a9de"/><path d="M454.779,119.025c-.556-.888-1.088-1.746-1.629-2.6-1.166-1.839-2.45-3.6-3.489-5.521-.19-.351-.353-.716-.537-1.07-1.1-2.117.207-5.044,1.911-6.293a5.877,5.877,0,0,1,6.439-.663,5.8,5.8,0,0,1,3.406,5.388,5.042,5.042,0,0,1-.857,2.52c-1.19,2.2-2.662,4.217-4.019,6.308-.405.625-.8,1.257-1.225,1.93" transform="translate(-383.727 -87.406)" fill="#03a9de"/><path d="M454.969,321.65A6.033,6.033,0,0,1,461,327.723a4.616,4.616,0,0,1-.654,2.071,63.383,63.383,0,0,1-3.565,5.7c-.567.879-1.134,1.757-1.693,2.641-.125.2-.219.291-.37.029-1.525-2.651-3.395-5.088-4.868-7.771a5.769,5.769,0,0,1-.992-2.986,6.109,6.109,0,0,1,6.111-5.762" transform="translate(-383.846 -275.064)" fill="#04a9df"/><path d="M245.68,249.142a6.473,6.473,0,0,1-4.337-1.478,3.632,3.632,0,0,1,.2-6c.982-.753.988-.757,1.607.279a31.5,31.5,0,0,1,1.579,3c.2.436.465.784.989.778a1.06,1.06,0,0,0,.982-.781,32.688,32.688,0,0,1,1.884-3.511c.106-.181.2-.407.493-.252,1.6.841,2.689,2.18,2.38,4.085a4.331,4.331,0,0,1-2.635,3.228,6.628,6.628,0,0,1-3.145.655" transform="translate(-205.117 -206.199)" fill="#03a9de"/><path d="M95.39,312.975c1.113-.989,2.215-1.972,3.321-2.95q8.52-7.537,17.035-15.079c.291-.259.445-.247.722,0,.368.329.8.592,1.228.906-.909.809-1.8,1.606-2.693,2.4q-8.781,7.769-17.556,15.543c-.367.325-.594.457-.974.013a6.507,6.507,0,0,0-1.083-.831" transform="translate(-81.574 -252.066)" fill="#183e7f"/><path d="M103.926,465.994a7.67,7.67,0,0,0,1.054-1.415c.157-.3.341-.092.5-.018q2.892,1.345,5.778,2.7,6.744,3.167,13.491,6.329c.389.182.487.292.138.621a2.26,2.26,0,0,0-.56.877c-.114.317-.249.372-.575.217-2.053-.983-4.119-1.938-6.18-2.9l-13.313-6.242c-.1-.047-.2-.1-.334-.165" transform="translate(-88.874 -397.156)" fill="#183e7e"/><path d="M331.355,466.352c-.025.212-.213.2-.332.261q-2.724,1.292-5.456,2.569-6.905,3.238-13.808,6.482c-.391.185-.628.25-.789-.248a2.107,2.107,0,0,0-.583-.86c-.3-.277-.158-.358.126-.489,1.944-.9,3.881-1.819,5.821-2.729,4.439-2.08,8.881-4.152,13.312-6.248.439-.208.7-.24.906.26a2.791,2.791,0,0,0,.638.824c.057.059.112.121.164.179" transform="translate(-265.291 -397.606)" fill="#183e7d"/><path d="M333.087,231.616a4.737,4.737,0,0,0,.03-1.758c-.071-.354.214-.325.393-.377q3.546-1.017,7.1-2.018c3.229-.913,6.461-1.816,9.685-2.745.414-.119.479-.048.408.354a2.251,2.251,0,0,0,.113,1.133c.119.334,0,.415-.3.5q-5.71,1.606-11.414,3.233-2.781.788-5.564,1.569c-.127.036-.256.063-.448.11" transform="translate(-284.844 -192.127)" fill="#183e7e"/><path d="M43.375,438.507a5.1,5.1,0,0,1-3.507-1.2c-1.785-1.564-1.205-3.694.655-4.792.264-.156.327.037.408.187.459.848.927,1.692,1.354,2.555.229.462.5.85,1.053.856s.779-.413,1-.842c.448-.853.92-1.694,1.39-2.535.071-.128.115-.354.355-.221a2.871,2.871,0,0,1,1.539,3.7,3.47,3.47,0,0,1-1.7,1.686,5.506,5.506,0,0,1-2.549.6" transform="translate(-33.172 -369.822)" fill="#03a9de"/><path d="M463.784,439.066a5.438,5.438,0,0,1-3.772-1.261c-1.585-1.448-1.212-3.536.591-4.644.258-.158.344-.008.46.174a32.534,32.534,0,0,1,1.634,2.909.965.965,0,0,0,1.766-.036c.45-.966,1.021-1.864,1.559-2.78.2-.334.352-.346.652-.118,1.759,1.339,1.861,3.234.22,4.645a4.376,4.376,0,0,1-1.674.86,5.242,5.242,0,0,1-1.437.251" transform="translate(-392.531 -370.367)" fill="#03a9de"/><path d="M259.222,540.468a3.87,3.87,0,0,1-3.731-1.847,2.212,2.212,0,0,1,1.043-2.72c.252-.161.318.053.4.207.356.658.717,1.312,1.054,1.979a1.063,1.063,0,0,0,.935.713,1.033,1.033,0,0,0,.972-.72c.33-.669.721-1.308,1.068-1.97.152-.29.291-.275.533-.1a2.2,2.2,0,0,1-.4,3.917,4.425,4.425,0,0,1-1.877.537" transform="translate(-218.34 -458.235)" fill="#04a9df"/><path d="M471,222.716a3.386,3.386,0,0,1-2.236-.983,1.8,1.8,0,0,1,0-2.664c.243-.247.4-.293.586.056.368.707.77,1.4,1.131,2.106a.983.983,0,0,0,1.865-.047c.35-.7.763-1.361,1.137-2.046.161-.295.3-.268.526-.056a1.781,1.781,0,0,1,.055,2.59A3.959,3.959,0,0,1,471,222.716" transform="translate(-400.364 -187.173)" fill="#06a9dd"/><path d="M241.254,39.666a7.715,7.715,0,1,1-6.85-2.657,7.517,7.517,0,0,1,5.439,1.354,4.317,4.317,0,0,1,1.411,1.3" transform="translate(-194.705 -31.583)" fill="#fcfdfc"/><path d="M313.062,48.121l-1.411-1.3a2.431,2.431,0,0,1,1.411,1.3" transform="translate(-266.513 -40.038)" fill="#3eb1c7"/><path d="M32.872,279.244a6.369,6.369,0,1,1,6.388-6.35,6.4,6.4,0,0,1-6.388,6.35" transform="translate(-22.655 -227.907)" fill="#fcfdfc"/><path d="M243.457,402.4a5.393,5.393,0,1,1,5.5,5.437,5.38,5.38,0,0,1-5.5-5.437" transform="translate(-208.196 -339.523)" fill="#fdfdfc"/><path d="M469.325,118.8a4.36,4.36,0,1,1-4.3-4.391,4.385,4.385,0,0,1,4.3,4.391" transform="translate(-393.894 -97.837)" fill="#fcfdfc"/><path d="M460.662,337.947a4.357,4.357,0,1,1,4.327,4.364,4.336,4.336,0,0,1-4.327-4.364" transform="translate(-393.942 -285.272)" fill="#fcfdfb"/><path d="M246.456,50.616a5.8,5.8,0,1,1-5.779,5.816,5.787,5.787,0,0,1,5.779-5.816" transform="translate(-205.818 -43.285)" fill="#183e7e"/><path d="M40.029,284.39a4.439,4.439,0,1,1,4.392,4.427,4.444,4.444,0,0,1-4.392-4.427" transform="translate(-34.231 -239.392)" fill="#183e7e"/><path d="M263.67,413.776a3.46,3.46,0,1,1-3.447-3.509,3.43,3.43,0,0,1,3.447,3.509" transform="translate(-219.563 -350.846)" fill="#183e7e"/><path d="M476.342,132.645a2.407,2.407,0,0,1-2.423-2.389,2.434,2.434,0,1,1,2.423,2.389" transform="translate(-405.279 -109.283)" fill="#183e7e"/><path d="M473.911,349.323a2.433,2.433,0,1,1,2.426,2.408,2.45,2.45,0,0,1-2.426-2.408" transform="translate(-405.272 -296.635)" fill="#183e7e"/></g></g></svg>