<svg id="Group_112" data-name="Group 112" xmlns="http://www.w3.org/2000/svg" xmlns:xlink="http://www.w3.org/1999/xlink" width="100.031" height="155.875" viewBox="0 0 100.031 155.875">
  <defs>
    <clipPath id="clip-path">
      <rect id="Rectangle_124" data-name="Rectangle 124" width="100.031" height="155.875" fill="none"/>
    </clipPath>
  </defs>
  <g id="Group_111" data-name="Group 111" clip-path="url(#clip-path)">
    <path id="Path_612" data-name="Path 612" d="M50.258,0c.492.619.941,1.28,1.483,1.851,9.521,10.034,18.946,20.154,27.344,31.173,7.111,9.329,13.424,19.13,17.446,30.254a50.712,50.712,0,0,1,3.159,22.661,42.822,42.822,0,0,1-9.912,23.09A63.056,63.056,0,0,1,82.9,116.3c-3.611,3.19-5.251,7.622-7.782,11.488a3.233,3.233,0,0,0-.183,1.624q-.041,13.233-.06,26.466H55.728v-4.6h14.6v-1.592q0-6.315,0-12.631c0-3.449-.671-7.09.221-10.292.9-3.248,3.361-6.062,5.137-9.066a1.248,1.248,0,0,0,.14-.269,11.6,11.6,0,0,0,.774-2.835c.082-4.462.039-8.927.034-13.391,0-.531-.043-1.062-.056-1.361-1.936.109-3.782.533-5.491.218s-3.277-1.37-5.02-2.152c-4.168,3.293-7.4,3.269-12.411-.274-4.465,3.961-10.293,2.488-15.611,3.89v5.327H33.591V97.256a4.628,4.628,0,0,1,.507-.124c4.47-.508,8.944-.986,13.409-1.53a4.185,4.185,0,0,0,3.963-4.058,4.112,4.112,0,0,0-4.427-3.862q-9.113-.03-18.226,0c-2.714.009-3.847,1-4.068,3.646-.536,6.413-1.047,12.829-1.488,19.249a3.016,3.016,0,0,0,.728,2c3.866,4.292,7.823,8.5,11.684,12.8a3.711,3.711,0,0,1,.881,2.247c.066,7,.039,14,.039,21v2.707H51.17v4.548H32.027c0-8.725-.021-17.451.03-26.176a3.514,3.514,0,0,0-1.087-2.677q-8.816-9.122-17.58-18.295C6.949,101.955,2.22,94.226.607,84.864a45.922,45.922,0,0,1,2.1-22.727l4.382,1.43c-5.741,17.15-1.2,31.553,11.742,44.051.268-3.417.505-6.477.749-9.538.209-2.627.317-5.268.664-7.877a7.59,7.59,0,0,1,6.1-6.921c0-2.859-.039-5.74.018-8.619a14.291,14.291,0,0,1,.411-3.6,8.46,8.46,0,0,1,12.027-5.246c.357.179.7.392,1.17.658a9.414,9.414,0,0,1,6.038-4.2c.478-.1.874-.8,1.223-1.279a49.927,49.927,0,0,0,8.81-19.48c.08-.393.211-.776.362-1.324,5.169,3.759,10.014,7.694,13.844,12.744a22.517,22.517,0,0,1,4.617,9.3,48.2,48.2,0,0,1,.582,7.37,1.778,1.778,0,0,0,1.062,1.866,8.249,8.249,0,0,1,4.712,7.741c.034,10.095.013,20.19.013,30.285v1.862a4.734,4.734,0,0,0,.678-.442c6.55-6.49,11.327-13.973,12.855-23.247A43.793,43.793,0,0,0,92.888,67C89.473,56.285,83.613,46.906,77,37.962,68.877,26.978,59.645,16.947,50.264,7.052a5.46,5.46,0,0,0-.518-.419c-6.856,6.99-10.8,15.122-10.27,25.089.192,3.591.54,7.174.742,10.765.4,7.044-5.935,11.741-12.979,9.364a22.772,22.772,0,0,1-9.071-6.165c-.385-.4-.759-.811-1.444-1.544L8.4,59.247,4.424,57.606c3.138-7.643,7.491-14.47,12.42-21.3.488.706.9,1.3,1.311,1.9,2.1,3.083,4.422,6,7.722,7.823a15.192,15.192,0,0,0,5.378,1.714,3.732,3.732,0,0,0,4.1-3.442,39.993,39.993,0,0,0-.138-7.1,47.234,47.234,0,0,1,.3-14.528C37.073,15.3,40.905,9.207,46,3.814,47.207,2.534,48.433,1.271,49.651,0ZM55.1,66.327c4.63-2.842,10.85-1.782,13.634,5.461.8-.769,1.94-1.351,2.075-2.112a13.792,13.792,0,0,0-.069-4.82c-1.341-7.231-6.266-12.009-11.482-16.63-1.175,2.628-2.2,5.2-3.457,7.656s-2.764,4.807-4.132,7.155l3.431,3.29M63.985,82.5c0-2.939.024-5.879-.008-8.818a3.945,3.945,0,1,0-7.884-.207q-.133,9.12,0,18.243a3.845,3.845,0,0,0,4.155,3.9,3.884,3.884,0,0,0,3.726-4.145c.031-2.99.007-5.98.008-8.971M76.62,85.518H76.6c0-2.179.11-4.366-.03-6.537a3.928,3.928,0,1,0-7.851.28c-.045,4.106-.057,8.214.026,12.319a5.03,5.03,0,0,0,.82,2.522,3.716,3.716,0,0,0,4.178,1.378A3.957,3.957,0,0,0,76.6,91.6c.087-2.024.019-4.055.019-6.083M51.467,83.582c0-4.143.066-8.539-.027-12.931a3.947,3.947,0,0,0-7.888.287c-.028,2.885-.008,5.769-.009,8.654,0,1.139,0,2.279,0,3.3l7.924.693M31.1,83.033h7.629c0-3.543.126-7.029-.053-10.5-.091-1.773-2.01-3.048-3.839-3a3.72,3.72,0,0,0-3.707,3.353c-.111,3.333-.031,6.673-.031,10.149" transform="translate(0)" fill="#161615"/>
    <path id="Path_613" data-name="Path 613" d="M10.424,291.393c2.834,3.489,5.74,6.615,8.111,10.1a10.1,10.1,0,0,1,.09,12.09,10.09,10.09,0,0,1-13.031,3.271A10.229,10.229,0,0,1,.617,304.216a15.414,15.414,0,0,1,1.6-3.247,35.375,35.375,0,0,1,2.931-3.861c1.589-1.826,3.279-3.565,5.273-5.715m-.2,7c-2.145,2.38-4.32,4.571-5.3,7.6a5.525,5.525,0,0,0,1.952,6.222,5.619,5.619,0,0,0,6.392.246,5.486,5.486,0,0,0,2.392-6.055c-.857-3.259-3.163-5.543-5.432-8.017" transform="translate(-0.001 -173.109)" fill="#161615"/>
    <rect id="Rectangle_122" data-name="Rectangle 122" width="4.501" height="4.457" transform="translate(50.984 18.966)" fill="#161615"/>
    <rect id="Rectangle_123" data-name="Rectangle 123" width="4.435" height="4.426" transform="translate(57.9 28.118)" fill="#161615"/>
    <path id="Path_614" data-name="Path 614" d="M206.059,6.364c2.979,3.782,6.028,7.122,8.445,10.87a9.79,9.79,0,0,1-.5,11.792A10.2,10.2,0,0,1,196.2,19.633a20.467,20.467,0,0,1,3.075-5.512c1.969-2.557,4.241-4.88,6.787-7.757m-.426,6.872c-1.681,2.48-3.393,4.729-4.79,7.16a5.059,5.059,0,0,0,.509,5.725,5.545,5.545,0,0,0,7.165,1.668,5.617,5.617,0,0,0,2.587-7.034c-1.087-2.856-3.128-5.042-5.471-7.518" transform="translate(-116.212 -3.781)" fill="#161615"/>
  </g>
</svg>
