<svg xmlns="http://www.w3.org/2000/svg" xmlns:xlink="http://www.w3.org/1999/xlink" width="71.137" height="91.416" viewBox="0 0 71.137 91.416"><defs><clipPath id="a"><rect width="91.416" height="71.137" fill="none"/></clipPath></defs><g transform="translate(71.137) rotate(90)"><g clip-path="url(#a)"><path d="M0,.854C.47.3.948-.225,1.788.1c1.586.647.654,3.612.918,5.044.58.839.255,1.767.264,2.662a12.848,12.848,0,0,1,0,2.708,3.879,3.879,0,0,1-.264,2.527A1.4,1.4,0,0,1,0,13.709Z" transform="translate(0 29.352)" fill="#d7d6d9"/><path d="M.368,5.139C.632,3.706-.3.746,1.287.1,2.128-.225,2.6.307,3.074.856v12.5C1.148,15.945-.423,12.415.1,10.52A15.543,15.543,0,0,1,.082,7.813c.061-.895-.307-1.836.286-2.674" transform="translate(88.342 29.35)" fill="#d7d6d9"/><path d="M5.18,0c5.492,2.879,4.667,14.752,5.113,20.191.934,1.468.027,3.2.209,4.8-.167,3.409.263,7.119-.693,10.37-.631,7.446-1.125,14.912-2.331,22.294.587.314-.939,8.154-1.625,8.227L5.313,67.5c-1.471.12-2.117-6.926-2.463-8.249A279.272,279.272,0,0,1,0,18.154c.365-5.062-1.218-8.1,5.529-6.718.851.183.9.134.8-.685-.227-1.98-.411-2.139-2.42-2.2-.969-.1-3.259.479-2.879-1.182C1.563,4.982,2.436.621,5.18,0" transform="translate(42.528 0.372)" fill="#dfdfe2"/><path d="M9.533.372c-2.012,1.256-2.774,3.3-3.4,5.422-.094.8-.8,2.125-.383,2.81.052.178-.062.268-.19.344C4.236,9.208,4.4,10.719,4.3,11.787c-.026.505.586.071.739.391A128.239,128.239,0,0,0,4.686,25.07c.161,8.641.8,17.258,1.735,25.847A109.291,109.291,0,0,0,9.066,66.825a1.441,1.441,0,0,0,.6,1.051C7.995,74.1,5.688,70.188,4.851,66.281a1.4,1.4,0,0,1-.632-1.027c-.315-2.225-1.543-5.085-.991-7.24C1.994,50.652,1.441,43.182.9,35.741a2.749,2.749,0,0,1-.473-1.776c.133-4.406-.981-9.1-.049-13.375C.93,14.766-.306-2.762,9.533.372" transform="translate(38.175 0)" fill="#d7d6d9"/><path d="M33.092,12.311l0,2.677C23.8,13.919,14.437,11.263,5.13,9.657c-3.137-.565-1.089,3.511-2.185,4.97-.968-.37-3.082.092-2.939-1.411C.152,9.788.35,6.362.265,2.93.291-1.8,1.168.363,5.08,1.42a18.554,18.554,0,0,1,6.06,2.343c3.324,1.646,6.929,2.253,10.3,3.756,1.395.589.419-1,1.216-1.373-.221,1.666.315,2.466,1.965,2.961,2.862.955,5.652,2.125,8.472,3.206" transform="translate(55.618 22.178)" fill="#49b9eb"/><path d="M0,15.026q0-1.339,0-2.679,4.939-1.89,9.881-3.775c.919-.369.368-1.622.557-2.4.426.183.349.584.353.912C10.527,8.9,15.437,5.5,16.465,5.92,20.51,4.88,23.9,2.227,28.014,1.455L32.085,0c.458.016.493.394.521.7.412,4.051.173,8.159.39,12.231.333,1.708-1.728,1.423-2.849,1.73-1.1-1.446.963-5.552-2.187-4.964-9.305,1.562-18.7,4.3-27.96,5.334" transform="translate(2.705 22.147)" fill="#49b9eb"/><path d="M.044,5.412C.249,3.449-.937-.736,2.4.112c9.241,1.972,18.583,3.6,27.789,5.662q0,1.337,0,2.673c-.5.4-1.034.139-1.539.037C20.372,6.825,12.1,5.135,3.818,3.49c-1.461-.226-.268,1.783-1.092,2.434A11.87,11.87,0,0,1,.044,5.412" transform="translate(58.519 31.392)" fill="#2cacda"/><path d="M0,5.778C9.284,3.872,18.565,1.954,27.859.1c3.276-.778,2.071,3.383,2.289,5.313a10.817,10.817,0,0,1-2.682.515c-.854-.837.466-3.035-1.44-2.363C17.8,5.177,9.6,6.914,1.366,8.519c-.452.087-.929.3-1.364-.074L0,5.778" transform="translate(2.705 31.395)" fill="#2cacda"/><path d="M0,5.417Q13.311,2.764,26.612.064c1.506-.493.617,1.989.851,2.831Q13.74,5.475,0,7.968,0,6.693,0,5.417" transform="translate(2.707 34.423)" fill="#49b9eb"/><path d="M.053,2.89C.3,1.977-.65-.442.994.07c8.836,1.8,17.682,3.56,26.522,5.343l0,2.54Q13.779,5.461.053,2.89" transform="translate(61.192 34.427)" fill="#49b9eb"/><path d="M4.3,1.56c-.756,2.124-.26,4.459-.4,6.671-.032,2.273-.105,4.546-.342,6.808-.049.468.206.625.515.8L0,15.158C.165,10.105.372,5.054.5,0A40.565,40.565,0,0,1,4.3,1.56" transform="translate(52.337 20.58)" fill="#2cacda"/><path d="M.213,15.834c.806-.789.112-4.354.2-5.64C.161,7.329.769,4.364,0,1.557,1.188.88,2.522.555,3.761,0q.146,7.58.522,15.151l-4.07.683" transform="translate(34.79 20.591)" fill="#2cacda"/><path d="M1.511,0q3.325,1.7,6.65,3.4c1.259.565.86,2.088.9,3.2a1.388,1.388,0,0,1-1.7,1.456c-2.373-.385-4.736-.829-7.1-1.25a.982.982,0,0,1-.2-1C.436,4.1.836,2.4,1.14.682A.923.923,0,0,1,1.511,0" transform="translate(52.065 59.978)" fill="#d7d6d9"/><path d="M8.891,6.806c-2.367.42-4.73.864-7.1,1.249A1.418,1.418,0,0,1,.075,6.512a3.078,3.078,0,0,1,2.156-3.8C4.1,1.969,5.836.916,7.631,0a1.257,1.257,0,0,1,.427.942c.26,1.55.6,3.082.98,4.606a1.2,1.2,0,0,1-.148,1.258" transform="translate(30.209 59.979)" fill="#d7d6d9"/><path d="M5.195,1.947c-.12,2.324-1.032,4.516-1.26,6.806C2.6,8.742,1.336,8.22,0,8.227A79.485,79.485,0,0,0,1.625,0l3.57,1.947" transform="translate(48.381 58.031)" fill="#c6c4cb"/><path d="M1.259,8.771C.969,6.475.171,4.286,0,1.965L3.563,0A55.151,55.151,0,0,0,5.186,8.268c-1.336-.051-2.6.523-3.927.5" transform="translate(37.84 58.014)" fill="#c6c4cb"/><path d="M.1,6.031C.38,4.445-.9.107,1.443.063,5.26-.011,6.4-.586,6,3.888,4.6,5.1,2.529,5.385.852,6.156A.692.692,0,0,1,.1,6.031" transform="translate(13.103 22.032)" fill="#d7d6d9"/><path d="M.075,3.888C-.323-.59.819-.009,4.634.063,6.973.107,5.7,4.442,5.974,6.031c-.291.261-.606.161-.917.054C3.434,5.343,1.43,5.047.075,3.888" transform="translate(72.235 22.033)" fill="#d7d6d9"/><path d="M.1.989C.663-.638,3.274.28,4.615.083A1.236,1.236,0,0,1,5.875,1.2c.176,2.033.18,2.044-1.734,2.781-1.023.394-2.03.837-3.078,1.161-.873.27-1.06.125-1.037-.8A22.625,22.625,0,0,1,.1.989" transform="translate(24.711 18.496)" fill="#d7d6d9"/><path d="M.1,1.114C.559-.694,3.226.3,4.6.075A1.184,1.184,0,0,1,5.842.99a29.709,29.709,0,0,1,.078,3.8c.012.488-.367.518-.689.421A43.113,43.113,0,0,1,.5,3.414c-.76-.407-.437-1.581-.4-2.3" transform="translate(60.759 18.497)" fill="#d7d6d9"/><path d="M.162.124C-.4,2.991,3.208,2.7,4.941,3.809c.9.36.948.336.953-.6C5.9,2.137,5.9,1.069,5.9,0c.441,2.046.024,4.328.158,6.453C4,5.781,1.991,4.967,0,4.111A26.676,26.676,0,0,1,.162.124" transform="translate(60.698 19.487)" fill="#c6c4cb"/><path d="M.206,0c0,1.157.019,2.315,0,3.472-.007.488.141.656.625.466q2.317-.906,4.644-1.786c.757-.343.33-1.366.468-2.022A26.529,26.529,0,0,1,6.11,4.117c-1.984.874-4,1.669-6.059,2.348C.184,4.339-.231,2.047.206,0" transform="translate(24.608 19.485)" fill="#c6c4cb"/><path d="M.08,2.143C2.128,1.65,3.979.621,5.98,0q.032,1.073.064,2.146c-1.781.866-3.666,1.474-5.5,2.2C-.262,4.781.06,2.562.08,2.143" transform="translate(13.126 25.921)" fill="#c6c4cb"/><path d="M.064,0c1.976.666,3.891,1.634,5.9,2.143.08,1.811.175,2.61-1.786,1.686A42.231,42.231,0,0,1,0,2.139Q.032,1.07.064,0" transform="translate(72.246 25.92)" fill="#c6c4cb"/><path d="M.139,1.9A4.966,4.966,0,0,1,.046,0C.077.637.108,1.271.139,1.9" transform="translate(52.681 18.659)" fill="#2cacda"/><path d="M1.106,3.651c-1.445.514-1.14-.339-.912-1.409C-.213-.876,4.069.123,5.984.259c1.37.19.9,1.99,1.187,2.987.051.488.017.78-.665.54a8.648,8.648,0,0,0-5.4-.135" transform="translate(42.103 8.528)" fill="#b8ddee"/></g></g></svg>