<svg id="Group_116" data-name="Group 116" xmlns="http://www.w3.org/2000/svg" xmlns:xlink="http://www.w3.org/1999/xlink" width="155.875" height="155.594" viewBox="0 0 155.875 155.594">
  <defs>
    <clipPath id="clip-path">
      <rect id="Rectangle_126" data-name="Rectangle 126" width="155.875" height="155.594" fill="none"/>
    </clipPath>
  </defs>
  <g id="Group_115" data-name="Group 115" clip-path="url(#clip-path)">
    <path id="Path_624" data-name="Path 624" d="M0,158.237c.285-1.064.546-2.135.859-3.191a20.953,20.953,0,1,1,36.7,18.7,17.381,17.381,0,0,0-9.306-12.084c2.4-2.575,3.72-5.5,3.324-8.983a10.442,10.442,0,0,0-3.757-7.052,10.713,10.713,0,0,0-13.935.125c-4.593,4.047-4.745,9.351-.386,15.961A17.289,17.289,0,0,0,4.357,173.7,11.156,11.156,0,0,1,3,171.737c-1.048-2.657-2.006-5.35-3-8.03v-5.47" transform="translate(0 -83.173)" fill="#161615"/>
    <path id="Path_625" data-name="Path 625" d="M322.685,163.743c-.814,2.371-1.566,4.767-2.472,7.1a21.076,21.076,0,0,1-1.833,3,17.428,17.428,0,0,0-9.184-12.1c4.411-6.72,4.168-12.226-.641-16.164a10.749,10.749,0,0,0-14.388.686c-3.357,3.36-5,9.694.222,15.4a17.368,17.368,0,0,0-9.212,12.037,18.343,18.343,0,0,1-3.845-7.908,20.966,20.966,0,1,1,41.044-8.52,7.474,7.474,0,0,0,.307.986Z" transform="translate(-166.809 -83.209)" fill="#161615"/>
    <path id="Path_626" data-name="Path 626" d="M171.041,357.863c-2.64-.96-5.283-1.914-7.92-2.88-1.7-.622-1.97-1.864-1.7-3.515C162.475,345.1,167,340.809,173.1,340.5a12.252,12.252,0,0,1,12.667,9.208c1,3.713.784,4.42-2.683,5.968a67.015,67.015,0,0,1-6.567,2.192Z" transform="translate(-95.843 -202.27)" fill="#161615"/>
    <path id="Path_627" data-name="Path 627" d="M123.861,164.69a14.13,14.13,0,0,1,.841-1.708c.794-1.173,1.649-2.305,2.479-3.454,1.282-1.773.734-3.175-1.424-3.581-1.441-.272-2.887-.529-4.338-.737a2.289,2.289,0,0,1-2.229-2.544q.018-4.177,0-8.354a2.261,2.261,0,0,1,2.091-2.514c1.646-.276,3.292-.553,4.935-.851a1.947,1.947,0,0,0,1.221-3.127c-.909-1.279-1.852-2.535-2.755-3.817a2.357,2.357,0,0,1,.257-3.512c1.92-1.95,3.868-3.872,5.808-5.8a2.4,2.4,0,0,1,3.415-.257q1.794,1.277,3.579,2.569c1.67,1.206,3.131.644,3.511-1.374.28-1.488.543-2.981.773-4.477a2.236,2.236,0,0,1,2.453-2.15q4.261,0,8.521,0a2.248,2.248,0,0,1,2.459,2.149c.257,1.6.543,3.186.834,4.775a1.961,1.961,0,0,0,3.207,1.259c1.282-.907,2.55-1.833,3.823-2.752a2.383,2.383,0,0,1,3.412.25c1.942,1.927,3.893,3.847,5.806,5.8A2.355,2.355,0,0,1,172.8,134c-.9,1.286-1.844,2.539-2.752,3.819a1.947,1.947,0,0,0,1.229,3.126c1.592.291,3.183.594,4.785.825a2.284,2.284,0,0,1,2.236,2.534q-.017,4.177,0,8.354a2.309,2.309,0,0,1-2.233,2.551c-1.6.242-3.192.537-4.785.826a1.945,1.945,0,0,0-1.228,3.124c.909,1.279,1.852,2.534,2.754,3.818a2.36,2.36,0,0,1-.253,3.516c-1.918,1.952-3.866,3.874-5.809,5.8a2.4,2.4,0,0,1-3.417.255c-1.2-.851-2.384-1.716-3.58-2.569-1.684-1.2-3.128-.639-3.508,1.381q-.421,2.233-.776,4.477A2.244,2.244,0,0,1,153,177.986q-4.26,0-8.521,0a2.246,2.246,0,0,1-2.449-2.16c-.253-1.595-.542-3.185-.834-4.774a1.963,1.963,0,0,0-3.214-1.245c-1.278.911-2.547,1.836-3.823,2.751a2.385,2.385,0,0,1-3.411-.26c-1.939-1.931-3.9-3.843-5.795-5.814a9.733,9.733,0,0,1-1.094-1.795m39.244-16a14.368,14.368,0,1,0-14.714,14.134,14.229,14.229,0,0,0,14.714-14.134" transform="translate(-70.808 -70.694)" fill="#161615"/>
    <path id="Path_628" data-name="Path 628" d="M177.876,313.754a17.189,17.189,0,0,0-9.162-11.824c4.416-6.377,4.3-11.892-.292-15.912a10.729,10.729,0,0,0-14.293.093c-4.519,4.039-4.6,9.554-.2,15.811a17.21,17.21,0,0,0-9.158,11.822c-5.683-6.5-6.634-18.874,1.655-27.284a21.031,21.031,0,0,1,29.677-.109c8.319,8.309,7.548,20.726,1.773,27.4" transform="translate(-83.382 -166.506)" fill="#161615"/>
    <path id="Path_629" data-name="Path 629" d="M144.787,33.512c-6.068-7.335-6.22-19.648,1.936-27.609a21.073,21.073,0,0,1,29.009-.23,20.736,20.736,0,0,1,2.2,27.831,17.416,17.416,0,0,0-9.284-11.914,10.937,10.937,0,0,0,3.251-9.555,10.354,10.354,0,0,0-4.113-6.852,10.685,10.685,0,0,0-14.12,1.1c-3.433,3.524-4.66,9.965.359,15.288a17.3,17.3,0,0,0-9.241,11.941" transform="translate(-83.408 0)" fill="#161615"/>
    <path id="Path_630" data-name="Path 630" d="M173.76,77.521a21.892,21.892,0,0,1-11.4-3.4,2,2,0,0,1-1.027-1.985,12.453,12.453,0,0,1,24.9.024,2.012,2.012,0,0,1-1.041,1.983,22.1,22.1,0,0,1-11.432,3.38" transform="translate(-95.845 -35.653)" fill="#161615"/>
    <path id="Path_631" data-name="Path 631" d="M313.427,217.664a19.924,19.924,0,0,1-10.4-3.369,2.567,2.567,0,0,1-1.086-1.751,12.4,12.4,0,0,1,24.794-.191,2.024,2.024,0,0,1-1.045,1.959,22.6,22.6,0,0,1-12.258,3.351" transform="translate(-179.372 -118.913)" fill="#161615"/>
    <path id="Path_632" data-name="Path 632" d="M33.61,217.676A20.686,20.686,0,0,1,22.1,214.214a2.524,2.524,0,0,1-.96-1.783c-.084-6.521,5.188-11.866,11.989-12.255,6.2-.355,11.909,4.662,12.691,10.918a3.265,3.265,0,0,1-1.968,3.847,23,23,0,0,1-10.241,2.736" transform="translate(-12.557 -118.908)" fill="#161615"/>
    <path id="Path_633" data-name="Path 633" d="M46.127,65.477a65.736,65.736,0,0,1,.5-8.455,13.166,13.166,0,0,1,13.028-10.6q6.16-.018,12.32,0c1.769,0,2.83.867,2.813,2.262-.017,1.368-1.121,2.267-2.857,2.273-4.006.013-8.011-.008-12.016.008a8.909,8.909,0,0,0-9.087,9c-.024,4.1.064,8.2-.067,12.3a3.245,3.245,0,0,1-1.325,2.283,2.652,2.652,0,0,1-2.32-.272,2.723,2.723,0,0,1-.813-1.96c-.1-2.273-.037-4.553-.037-6.831l-.144-.007" transform="translate(-27.403 -27.575)" fill="#161615"/>
    <path id="Path_634" data-name="Path 634" d="M65.795,295.352a67.359,67.359,0,0,1-8.625-.477,13.116,13.116,0,0,1-10.689-12.94c-.036-4.15-.019-8.3-.01-12.45,0-1.676.838-2.692,2.187-2.734,1.376-.044,2.353,1.067,2.36,2.762.017,4-.006,8,.01,11.994a8.923,8.923,0,0,0,9.23,9.169c3.955.011,7.909-.005,11.864.006,1.742.005,2.843.893,2.868,2.261.025,1.4-1.038,2.268-2.8,2.275-2.129.008-4.259,0-6.388,0,0,.043,0,.088-.006.132" transform="translate(-27.6 -158.47)" fill="#161615"/>
    <path id="Path_635" data-name="Path 635" d="M276.514,295.211q-3.118,0-6.236,0c-1.937,0-2.989-.777-3.014-2.211-.026-1.461,1.116-2.326,3.1-2.328,3.853-.005,7.706.007,11.559,0a8.937,8.937,0,0,0,9.3-9.255c.015-4-.016-8,.013-11.993.014-2.013,1.6-3.277,3.139-2.4a2.972,2.972,0,0,1,1.341,2.095c.115,4.6.171,9.213.014,13.813-.218,6.387-6.257,12.15-12.677,12.276-2.179.043-4.36.007-6.54.007Z" transform="translate(-158.775 -158.46)" fill="#161615"/>
    <path id="Path_636" data-name="Path 636" d="M276.6,46.1a65.647,65.647,0,0,1,8.472.475,13.114,13.114,0,0,1,10.687,12.94c.041,4.149.022,8.3.012,12.449,0,1.675-.841,2.692-2.19,2.735-1.371.043-2.35-1.072-2.357-2.767-.017-4,.008-8-.01-11.993a8.923,8.923,0,0,0-9.236-9.161c-4-.01-8.01.016-12.015-.011-2.019-.013-3.311-1.582-2.44-3.109a3.229,3.229,0,0,1,2.232-1.359c2.267-.181,4.558-.063,6.839-.063l.006-.134" transform="translate(-158.764 -27.387)" fill="#161615"/>
    <path id="Path_637" data-name="Path 637" d="M182.658,311.193a6.23,6.23,0,1,1,6.4-6.143,6.3,6.3,0,0,1-6.4,6.143" transform="translate(-104.838 -177.471)" fill="#161615"/>
    <path id="Path_638" data-name="Path 638" d="M323.213,158.679a6.237,6.237,0,0,1,6.35,6.183,6.312,6.312,0,0,1-6.293,6.276,6.224,6.224,0,0,1-6.237-6.3,6.16,6.16,0,0,1,6.181-6.164" transform="translate(-188.341 -94.267)" fill="#161615"/>
    <path id="Path_639" data-name="Path 639" d="M42.4,158.679a6.092,6.092,0,0,1,6.188,6.285,6.177,6.177,0,0,1-6.338,6.178,6.355,6.355,0,0,1-6.177-6.248,6.266,6.266,0,0,1,6.327-6.215" transform="translate(-21.432 -94.267)" fill="#161615"/>
    <path id="Path_640" data-name="Path 640" d="M182.967,18.393a6.3,6.3,0,0,1,6.082,6.483,6.4,6.4,0,0,1-6.4,6.057,6.472,6.472,0,0,1-6.183-6.448,6.36,6.36,0,0,1,6.5-6.092" transform="translate(-104.834 -10.924)" fill="#161615"/>
    <path id="Path_641" data-name="Path 641" d="M167.362,177.031a10,10,0,1,1,9.981,9.964,10.1,10.1,0,0,1-9.981-9.964" transform="translate(-99.426 -99.233)" fill="#161615"/>
  </g>
</svg>
